{
  "scene": 0,
  "scenes" : [
    {
      "nodes" : [ 0 ]
    }
  ],
  "nodes" : [
    {
      "mesh" : 0
    }
  ],
  "meshes" : [
    {
      "primitives" : [ {
        "attributes" : {
          "POSITION" : 1
        },
        "indices" : 0
      } ]
    }
  ],
  "buffers" : [
    {
      "uri" : "data:application/octet-stream;base64,",
      "byteLength" : 2016
    }
  ],
  "bufferViews" : [
    {
      "buffer" : 0,
      "byteOffset" : 0,
      "byteLength" : 2016,
      "target" : 34963
    },
    {
      "buffer" : 0,
      "byteOffset" : 0,
      "byteLength" : 2016,
      "target" : 34962
    }
  ],
  "accessors" : [
    {
      "bufferView" : 0,
      "byteOffset" : 0,
      "componentType" : 5123,
      "count" : 336,
      "type" : "SCALAR",
      "max" : [ 167 ],
      "min" : [ 0 ]
    },
    {
      "bufferView" : 1,
      "byteOffset" : 0,
      "componentType" : 5126,
      "count" : 168,
      "type" : "VEC3",
      "max" : [ 1.0, 1.0, 1.0 ],
      "min" : [ -1.0, -1.0, -1.0 ]
    }
  ]
}
